<svg width="20" height="20" viewBox="0 0 20 20" fill="none" xmlns="http://www.w3.org/2000/svg">
<path d="M10 20C7.32895 20 4.81766 18.9598 2.92892 17.0711C1.04019 15.1823 0 12.6711 0 10C0 7.32895 1.04019 4.81766 2.92892 2.92892C4.81766 1.04019 7.32895 0 10 0C12.6711 0 15.1823 1.04019 17.0711 2.92892C18.9598 4.81766 20 7.32895 20 10C20 12.6711 18.9598 15.1823 17.0711 17.0711C15.1823 18.9598 12.6711 20 10 20ZM10 1.5625C5.3476 1.5625 1.5625 5.3476 1.5625 10C1.5625 14.6524 5.3476 18.4375 10 18.4375C14.6524 18.4375 18.4375 14.6524 18.4375 10C18.4375 5.3476 14.6524 1.5625 10 1.5625ZM15.4018 8.67188L14.2969 7.56699L10 11.8639L5.70312 7.56699L4.59824 8.67188L10 14.0736L15.4018 8.67188Z" fill="#087285"/>
</svg>
