<svg width="70" height="70" viewBox="0 0 70 70" fill="none" xmlns="http://www.w3.org/2000/svg">
<g filter="url(#filter0_d_124_67)">
<circle cx="35" cy="31" r="25" fill="#0096A9" fill-opacity="0.2" shape-rendering="crispEdges"/>
</g>
<g clip-path="url(#clip0_124_67)">
<path d="M47.5 18V36C47.5 36.3978 47.342 36.7794 47.0607 37.0607C46.7794 37.342 46.3978 37.5 46 37.5H22C21.6022 37.5 21.2206 37.342 20.9393 37.0607C20.658 36.7794 20.5 36.3978 20.5 36V18C20.5051 17.6037 20.6647 17.2251 20.9449 16.9449C21.2251 16.6647 21.6037 16.5051 22 16.5H46C46.3963 16.5048 46.7751 16.6644 47.0554 16.9446C47.3356 17.2249 47.4952 17.6037 47.5 18Z" fill="#D3D83A"/>
<path d="M47.025 37.095C46.7478 37.3563 46.3809 37.5012 46 37.5H22C21.6191 37.5012 21.2522 37.3563 20.975 37.095L32.825 27H35.175L47.025 37.095Z" fill="#B5B937"/>
<path d="M47.025 16.905L35.035 27.12C34.7456 27.3646 34.3789 27.4988 34 27.4988C33.6211 27.4988 33.2544 27.3646 32.965 27.12L20.975 16.905C21.2522 16.6437 21.6191 16.4988 22 16.5H46C46.3809 16.4988 46.7478 16.6437 47.025 16.905V16.905Z" fill="#A8AC09"/>
<path d="M43.5 42V43C43.5 43.663 43.2366 44.2989 42.7678 44.7678C42.2989 45.2366 41.663 45.5 41 45.5C40.337 45.5 39.7011 45.2366 39.2322 44.7678C38.7634 44.2989 38.5 43.663 38.5 43V42H43.5Z" fill="#1C8C92"/>
<path d="M41 27.5C41.5523 27.5 42 27.0523 42 26.5C42 25.9477 41.5523 25.5 41 25.5C40.4477 25.5 40 25.9477 40 26.5C40 27.0523 40.4477 27.5 41 27.5Z" fill="#B2E3EC"/>
<path d="M49.496 41.5885C49.4648 41.8438 49.3399 42.0784 49.1455 42.2468C48.9512 42.4153 48.7011 42.5055 48.444 42.5H33.5C33.3619 42.4976 33.2258 42.4672 33.0999 42.4104C32.9741 42.3537 32.8611 42.2719 32.7678 42.17C32.6746 42.0681 32.6032 41.9483 32.5578 41.8179C32.5124 41.6875 32.4941 41.5492 32.504 41.4115C32.5352 41.1562 32.6601 40.9216 32.8545 40.7532C33.0488 40.5847 33.2989 40.4945 33.556 40.5C33.8064 40.5 34.0465 40.4005 34.2235 40.2235C34.4005 40.0465 34.5 39.8064 34.5 39.556V34.1835C34.4823 32.4909 35.1135 30.8557 36.2641 29.6141C37.4146 28.3724 38.9969 27.6186 40.686 27.5075C41.565 27.465 42.4435 27.6014 43.2682 27.9085C44.0929 28.2156 44.8467 28.687 45.4838 29.294C46.121 29.9011 46.6282 30.6312 46.9748 31.4402C47.3213 32.2491 47.5 33.12 47.5 34V39.556C47.5 39.8064 47.5995 40.0465 47.7765 40.2235C47.9535 40.4005 48.1936 40.5 48.444 40.5H48.5C48.6377 40.5035 48.7733 40.5347 48.8986 40.5918C49.024 40.649 49.1365 40.7308 49.2295 40.8324C49.3225 40.934 49.394 41.0534 49.4398 41.1833C49.4856 41.3132 49.5047 41.451 49.496 41.5885V41.5885Z" fill="#2EB8BF"/>
<path d="M36.5 34.5C36.3674 34.5 36.2402 34.4473 36.1464 34.3536C36.0527 34.2598 36 34.1326 36 34C36.0016 32.6744 36.5289 31.4036 37.4662 30.4662C38.4036 29.5289 39.6744 29.0016 41 29C41.1326 29 41.2598 29.0527 41.3536 29.1464C41.4473 29.2402 41.5 29.3674 41.5 29.5C41.5 29.6326 41.4473 29.7598 41.3536 29.8536C41.2598 29.9473 41.1326 30 41 30C39.9395 30.0013 38.9229 30.4232 38.173 31.173C37.4232 31.9229 37.0013 32.9395 37 34C37 34.1326 36.9473 34.2598 36.8536 34.3536C36.7598 34.4473 36.6326 34.5 36.5 34.5Z" fill="#B2E3EC"/>
</g>
<defs>
<filter id="filter0_d_124_67" x="0" y="0" width="70" height="70" filterUnits="userSpaceOnUse" color-interpolation-filters="sRGB">
<feFlood flood-opacity="0" result="BackgroundImageFix"/>
<feColorMatrix in="SourceAlpha" type="matrix" values="0 0 0 0 0 0 0 0 0 0 0 0 0 0 0 0 0 0 127 0" result="hardAlpha"/>
<feOffset dy="4"/>
<feGaussianBlur stdDeviation="5"/>
<feComposite in2="hardAlpha" operator="out"/>
<feColorMatrix type="matrix" values="0 0 0 0 0 0 0 0 0 0 0 0 0 0 0 0 0 0 0.1 0"/>
<feBlend mode="normal" in2="BackgroundImageFix" result="effect1_dropShadow_124_67"/>
<feBlend mode="normal" in="SourceGraphic" in2="effect1_dropShadow_124_67" result="shape"/>
</filter>
<clipPath id="clip0_124_67">
<rect width="30" height="30" fill="white" transform="translate(20 16)"/>
</clipPath>
</defs>
</svg>
