<svg width="70" height="70" viewBox="0 0 70 70" fill="none" xmlns="http://www.w3.org/2000/svg">
<g filter="url(#filter0_d_124_77)">
<circle cx="35" cy="31" r="25" fill="#0096A9" fill-opacity="0.2" shape-rendering="crispEdges"/>
</g>
<path d="M44.3867 23.834H32.0293C31.5547 23.834 31.1738 23.4473 31.1738 22.9785V22.4805C31.1738 22.0059 30.7871 21.625 30.3184 21.625H20.9727C20.5039 21.6191 20.1172 22 20.1172 22.4746V43.0469C20.1172 43.5215 20.5039 43.9023 20.9727 43.9023H44.3809C44.8555 43.9023 45.2363 43.5156 45.2363 43.0469V24.6895C45.2422 24.2148 44.8555 23.834 44.3867 23.834Z" fill="#A8AC09"/>
<path d="M44.3867 23.834H32.0293C31.5547 23.834 31.1738 23.4473 31.1738 22.9785V22.4805C31.1738 22.0059 30.7871 21.625 30.3184 21.625H20.9727C20.5039 21.6191 20.1172 22 20.1172 22.4746V22.9844C20.1172 22.5098 20.5039 22.1289 20.9727 22.1289H30.3125C30.7871 22.1289 31.168 22.5156 31.168 22.9844V23.4824C31.168 23.957 31.5547 24.3379 32.0234 24.3379H44.375C44.8496 24.3379 45.2305 24.7246 45.2305 25.1934V24.6836C45.2422 24.2148 44.8555 23.834 44.3867 23.834Z" fill="#BDC12C"/>
<path d="M22.1855 18.0918H43.168V43.9082H22.1855V18.0918Z" fill="white"/>
<path d="M23.3457 19.5918H44.3281V43.9082H23.3457V19.5918Z" fill="#2EB8BF"/>
<path d="M49.0215 28.8613H39.7871C39.4238 28.8613 39.1016 29.0898 38.9785 29.4297L38.8496 29.7871C38.7266 30.127 38.4043 30.3555 38.041 30.3555H25.1855C24.8223 30.3555 24.5 30.584 24.377 30.9238L20.1641 42.7598C19.9648 43.3164 20.3809 43.9082 20.9727 43.9082H44.2754C44.6387 43.9082 44.9609 43.6797 45.084 43.3398L49.8301 30.0098C50.0293 29.4473 49.6191 28.8613 49.0215 28.8613Z" fill="#D3D83A"/>
<path d="M24.3828 31.498C24.5059 31.1582 24.8281 30.9297 25.1914 30.9297H38.0469C38.4101 30.9297 38.7324 30.7012 38.8555 30.3613L38.9844 30.0039C39.1074 29.6641 39.4297 29.4355 39.793 29.4355H49.0273C49.4141 29.4355 49.7187 29.6875 49.8359 30.0098V30.0039C50.0352 29.4473 49.6191 28.8555 49.0273 28.8555H39.793C39.4297 28.8555 39.1074 29.084 38.9844 29.4238L38.8555 29.7813C38.7324 30.1211 38.4101 30.3496 38.0469 30.3496H25.1855C24.8223 30.3496 24.5 30.5781 24.3769 30.918L20.1641 42.7539C20.0937 42.9473 20.1055 43.1465 20.1641 43.3223L24.3828 31.498Z" fill="#6A6C0C"/>
<path d="M26.3516 23.2129H41.3164V24.2969H26.3516V23.2129Z" fill="#1C8C92"/>
<path d="M26.3516 26.9746H41.3164V28.0586H26.3516V26.9746Z" fill="#1C8C92"/>
<defs>
<filter id="filter0_d_124_77" x="0" y="0" width="70" height="70" filterUnits="userSpaceOnUse" color-interpolation-filters="sRGB">
<feFlood flood-opacity="0" result="BackgroundImageFix"/>
<feColorMatrix in="SourceAlpha" type="matrix" values="0 0 0 0 0 0 0 0 0 0 0 0 0 0 0 0 0 0 127 0" result="hardAlpha"/>
<feOffset dy="4"/>
<feGaussianBlur stdDeviation="5"/>
<feComposite in2="hardAlpha" operator="out"/>
<feColorMatrix type="matrix" values="0 0 0 0 0 0 0 0 0 0 0 0 0 0 0 0 0 0 0.1 0"/>
<feBlend mode="normal" in2="BackgroundImageFix" result="effect1_dropShadow_124_77"/>
<feBlend mode="normal" in="SourceGraphic" in2="effect1_dropShadow_124_77" result="shape"/>
</filter>
</defs>
</svg>
