<svg width="70" height="70" viewBox="0 0 70 70" fill="none" xmlns="http://www.w3.org/2000/svg">
<g filter="url(#filter0_d_124_90)">
<circle cx="35" cy="31" r="25" fill="#0096A9" fill-opacity="0.2" shape-rendering="crispEdges"/>
</g>
<g clip-path="url(#clip0_124_90)">
<path d="M50 40.3111H33.0314V19.1716H44.7169L50 24.4547V40.3111Z" fill="#D3D83A"/>
<path d="M44.7169 19.1716H41.5332V40.3111H50V24.4547L44.7169 19.1716Z" fill="#A8AC09"/>
<path d="M38.0664 30.6531H46.7718V32.4153H38.0664V30.6531Z" fill="#BDC12C"/>
<path d="M38.0664 27.4017H46.7718V29.164H38.0664V27.4017Z" fill="#BDC12C"/>
<path d="M41.5332 30.6531H46.7719V32.4153H41.5332V30.6531Z" fill="#808305"/>
<path d="M41.5332 27.4017H46.7719V29.164H41.5332V27.4017Z" fill="#808305"/>
<path d="M36.3407 34.0277H41.5332V35.7899H36.3407V34.0277Z" fill="#BDC12C"/>
<path d="M32.1964 36.0883C35.2072 36.0883 37.6479 33.6477 37.6479 30.6369C37.6479 27.6262 35.2072 25.1855 32.1964 25.1855C29.1857 25.1855 26.745 27.6262 26.745 30.6369C26.745 33.6477 29.1857 36.0883 32.1964 36.0883Z" fill="#F2F2FC"/>
<path d="M36.049 26.7801L28.3396 34.4895C29.3263 35.4773 30.69 36.0884 32.1964 36.0884C35.2071 36.0884 37.6479 33.6476 37.6479 30.6369C37.6479 29.1305 37.0367 27.7668 36.049 26.7801Z" fill="#B2E3EC"/>
<path d="M22.5068 42.8285C21.8649 42.8285 21.2229 42.5841 20.7342 42.0954C20.2607 41.622 20 40.9925 20 40.3229C20 39.6533 20.2607 39.0238 20.7342 38.5504L23.4406 35.844L25.5586 37.2698L26.9857 39.3891L24.2793 42.0954C23.7906 42.5841 23.1487 42.8285 22.5068 42.8285Z" fill="#2EB8BF"/>
<path d="M20.7337 42.0948L20.7342 42.0954C21.2229 42.5841 21.8649 42.8284 22.5068 42.8284C23.1487 42.8284 23.7906 42.5841 24.2793 42.0954L26.9857 39.389L25.5586 37.2698L20.7337 42.0948Z" fill="#1C8C92"/>
<path d="M26.9857 39.3891L26.6428 37.0187L27.0042 35.746L25.7388 35.8788L23.4406 35.844L26.9857 39.3891Z" fill="#B2E3EC"/>
<path d="M25.2126 37.6159L26.9857 39.3891L26.9787 37.1187L27.0018 36.898L27.0041 35.8244L25.2126 37.6159Z" fill="#58B9CB"/>
<path d="M37.0367 25.8208C35.752 24.536 34.0438 23.8285 32.2269 23.8285C30.4101 23.8285 28.7019 24.536 27.4172 25.8208C24.975 28.2629 24.7818 32.1151 26.8371 34.7806L25.7389 35.8788L26.9788 37.1187L28.0767 36.0208C29.2608 36.9364 30.7057 37.4327 32.227 37.4327C34.0439 37.4327 35.7521 36.7252 37.0368 35.4404C38.3216 34.1557 39.0291 32.4475 39.0291 30.6306C39.029 28.8137 38.3215 27.1055 37.0367 25.8208ZM35.7968 34.2005C34.8433 35.1541 33.5755 35.6792 32.2269 35.6792C30.8783 35.6792 29.6106 35.1541 28.657 34.2005C27.7034 33.2469 27.1783 31.9791 27.1783 30.6306C27.1783 29.282 27.7034 28.0142 28.657 27.0606C29.6106 26.1071 30.8784 25.582 32.2269 25.582C33.5754 25.582 34.8433 26.1071 35.7968 27.0606C36.7504 28.0142 37.2756 29.282 37.2756 30.6306C37.2756 31.9791 36.7504 33.247 35.7968 34.2005Z" fill="#2EB8BF"/>
<path d="M37.0367 25.8208C37.0319 25.8159 37.0269 25.8113 37.022 25.8064L35.7819 27.0465C35.7868 27.0514 35.792 27.0558 35.7968 27.0607C36.7504 28.0142 37.2755 29.2821 37.2755 30.6306C37.2755 31.9792 36.7504 33.247 35.7968 34.2006C34.8433 35.1541 33.5755 35.6792 32.2269 35.6792C30.8783 35.6792 29.6105 35.1541 28.657 34.2006C28.6521 34.1957 28.6477 34.1905 28.6428 34.1857L26.3442 36.4843L26.9786 37.1188L28.0766 36.0208C29.2607 36.9364 30.7056 37.4328 32.2269 37.4328C34.0438 37.4328 35.752 36.7253 37.0367 35.4405C38.3214 34.1557 39.029 32.4476 39.029 30.6306C39.029 28.8137 38.3215 27.1055 37.0367 25.8208Z" fill="#1C8C92"/>
<path d="M44.7169 24.4547H50L44.7169 19.1716V24.4547Z" fill="#D3D83A"/>
</g>
<defs>
<filter id="filter0_d_124_90" x="0" y="0" width="70" height="70" filterUnits="userSpaceOnUse" color-interpolation-filters="sRGB">
<feFlood flood-opacity="0" result="BackgroundImageFix"/>
<feColorMatrix in="SourceAlpha" type="matrix" values="0 0 0 0 0 0 0 0 0 0 0 0 0 0 0 0 0 0 127 0" result="hardAlpha"/>
<feOffset dy="4"/>
<feGaussianBlur stdDeviation="5"/>
<feComposite in2="hardAlpha" operator="out"/>
<feColorMatrix type="matrix" values="0 0 0 0 0 0 0 0 0 0 0 0 0 0 0 0 0 0 0.1 0"/>
<feBlend mode="normal" in2="BackgroundImageFix" result="effect1_dropShadow_124_90"/>
<feBlend mode="normal" in="SourceGraphic" in2="effect1_dropShadow_124_90" result="shape"/>
</filter>
<clipPath id="clip0_124_90">
<rect width="30" height="30" fill="white" transform="translate(20 16)"/>
</clipPath>
</defs>
</svg>
