<svg width="69" height="69" viewBox="0 0 69 69" fill="none" xmlns="http://www.w3.org/2000/svg">
<g id="crane" clip-path="url(#clip0)">
<g id="Group">
<rect id="Rectangle" x="40.0645" y="58.9839" width="23.371" height="6.67742" fill="#F9C637"/>
<rect id="Rectangle_2" x="25.5968" y="12.2419" width="51.1936" height="4.45161" transform="rotate(90 25.5968 12.2419)" fill="#F9C637"/>
<g id="Group_2">
<path id="Vector" d="M57.5 34.4997C58.1351 34.4997 58.65 33.9848 58.65 33.3497V17.2497H67.85C68.4851 17.2497 69 16.7348 69 16.0997V11.4997C68.9941 11.457 68.9856 11.4149 68.9747 11.3732C68.9674 11.29 68.9508 11.2077 68.9253 11.1282C68.904 11.0697 68.8778 11.0132 68.847 10.9592C68.7434 10.7631 68.5831 10.6028 68.387 10.4992C68.3294 10.467 68.269 10.4401 68.2065 10.4187C68.1732 10.4072 68.1467 10.3853 68.1122 10.3773L24.4122 0.0272892C24.3262 0.00802674 24.2383 -0.00117326 24.15 -0.000310764H19.55C19.414 0.00270799 19.2796 0.0298767 19.1533 0.0801892C19.1222 0.0916893 19.0934 0.102039 19.0635 0.115839C19.0336 0.129639 19.0107 0.133089 18.9854 0.146889L0.58535 10.4969C0.528569 10.5348 0.475525 10.578 0.42665 10.6257C0.388844 10.6526 0.352763 10.6818 0.31855 10.7131C0.222238 10.8111 0.144469 10.9257 0.08855 11.0512V11.065C0.0383812 11.1913 0.0110687 11.3258 0.00805 11.4617C0.00805 11.4757 0 11.487 0 11.5008V16.1008C0 16.7359 0.514912 17.2508 1.15 17.2508H17.25V38.6236L12.9869 42.8866C12.7713 43.1023 12.65 43.3947 12.65 43.6997V62.0997H10.35V68.9997H33.35V62.0997H31.05V43.6997C31.05 43.3947 30.9287 43.1023 30.7131 42.8866L26.45 38.6236V17.2497H49.45V33.3497C49.45 33.9848 49.9649 34.4997 50.6 34.4997H52.9V37.9497C52.9 38.5848 53.4149 39.0997 54.05 39.0997C55.3203 39.0997 56.35 40.1294 56.35 41.3997C56.35 42.67 55.3203 43.6997 54.05 43.6997C52.7797 43.6997 51.75 42.67 51.75 41.3997V40.2497H49.45V41.3997C49.4559 43.0786 50.3788 44.6198 51.8558 45.4178L43.2239 54.0497H40.25C39.6149 54.0497 39.1 54.5646 39.1 55.1997V65.5497C39.1 66.1848 39.6149 66.6997 40.25 66.6997H67.85C68.4851 66.6997 69 66.1848 69 65.5497V55.1997C69 54.5646 68.4851 54.0497 67.85 54.0497H64.8761L56.2442 45.4178C58.4716 44.2172 59.3039 41.4384 58.1035 39.211C57.4953 38.0827 56.4423 37.2607 55.2 36.9446V34.4997H57.5ZM58.65 12.6497H66.7V14.9497H58.65V12.6497ZM66.7 56.3497V64.3997H41.4V56.3497H66.7ZM61.6239 54.0497H46.4761L54.05 46.4759L61.6239 54.0497ZM56.35 27.5997H51.75V17.2497H56.35V27.5997ZM56.35 14.9497H51.75V12.6497H56.35V14.9497ZM20.7 2.29969H23V10.3497H20.7V2.29969ZM19.55 12.6497H24.15V14.4736L23.6739 14.9497H19.55V12.6497ZM24.15 17.7258V25.9736L20.0261 21.8497L24.15 17.7258ZM19.55 17.2497H21.3739L19.55 19.0736V17.2497ZM19.55 24.6259L23.6739 28.7497L19.55 32.8736V24.6259ZM24.15 31.5259V39.0997V39.7736L20.0261 35.6497L24.15 31.5259ZM19.55 39.0997V38.4258L23.6739 42.5497L19.55 46.6736V39.0997ZM24.15 45.3259V53.5737L20.0261 49.4497L24.15 45.3259ZM19.55 52.2259L23.6739 56.3497L19.55 60.4736V52.2259ZM24.15 59.1259V62.0997H21.1761L24.15 59.1259ZM18.4 3.11619V10.3497H5.53955L18.4 3.11619ZM2.3 14.9497V12.6497H17.25V14.9497H2.3ZM14.95 44.1759L17.25 41.8759V62.0997H14.95V44.1759ZM31.05 64.3997V66.6997H12.65V64.3997H31.05ZM28.75 44.1759V62.0997H26.45V41.8759L28.75 44.1759ZM49.45 14.9497H26.45V12.6497H49.45V14.9497ZM25.3 10.3497V2.60329L58.0048 10.3497H57.5H25.3ZM51.75 32.1997V29.8997H56.35V32.1997H51.75Z" fill="white"/>
</g>
</g>
</g>
<defs>
<clipPath id="clip0">
<rect width="69" height="69" fill="white"/>
</clipPath>
</defs>
</svg>
