<svg width="88" height="82" viewBox="0 0 88 82" fill="none" xmlns="http://www.w3.org/2000/svg">
<path d="M84.3751 80.2H3.9001C3.71885 80.2 3.5376 80.0188 3.5376 79.8375L1.7251 70.775C1.7251 70.5938 1.90635 70.2313 2.0876 70.2313H38.5188L40.3313 72.0438H47.7626L49.5751 70.2313H86.0063C86.1876 70.2313 86.5501 70.4125 86.3688 70.775L84.5563 79.8375C84.7376 80.0188 84.5563 80.2 84.3751 80.2Z" stroke="white" stroke-width="2" stroke-miterlimit="10"/>
<path d="M13.8688 16.9438H6.8001C6.4376 16.9438 6.25635 17.125 6.25635 17.4875V66.0625" stroke="white" stroke-width="2" stroke-miterlimit="10"/>
<path d="M82.019 66.0625V17.6687C82.019 17.3062 81.8377 17.125 81.4752 17.125H74.9502" stroke="white" stroke-width="2" stroke-miterlimit="10"/>
<path d="M70.7814 1.17501H17.8564V61.8938H70.7814V1.17501Z" stroke="white" stroke-width="2" stroke-miterlimit="10"/>
<path d="M17.8564 38.3312L35.9814 23.1062L43.2314 29.9937L70.9627 9.51249" stroke="white" stroke-width="2" stroke-miterlimit="10"/>
<path d="M23.8374 33.4375V62.075" stroke="white" stroke-width="2" stroke-miterlimit="10"/>
<path d="M29.6377 27.275V62.075" stroke="white" stroke-width="2" stroke-miterlimit="10"/>
<path d="M35.6187 23.8313V62.075" stroke="white" stroke-width="2" stroke-miterlimit="10"/>
<path d="M41.4189 28.3625V62.075" stroke="white" stroke-width="2" stroke-miterlimit="10"/>
<path d="M47.2188 27.275V62.075" stroke="white" stroke-width="2" stroke-miterlimit="10"/>
<path d="M53.019 22.5625V62.075" stroke="white" stroke-width="2" stroke-miterlimit="10"/>
<path d="M59 18.3938V62.075" stroke="white" stroke-width="2" stroke-miterlimit="10"/>
<path d="M64.8003 13.1375V62.075" stroke="white" stroke-width="2" stroke-miterlimit="10"/>
<path d="M17.8564 11.325H59.1814" stroke="white" stroke-width="2" stroke-miterlimit="10"/>
<path d="M23.8374 6.43128H28.0062" stroke="white" stroke-width="2" stroke-miterlimit="10"/>
<path d="M31.0874 6.43128H35.2562" stroke="white" stroke-width="2" stroke-miterlimit="10"/>
<path d="M38.3374 6.43128H42.5062" stroke="white" stroke-width="2" stroke-miterlimit="10"/>
</svg>
