<svg width="74" height="74" viewBox="0 0 74 74" fill="none" xmlns="http://www.w3.org/2000/svg">
<rect x="32" y="26" width="16" height="48" fill="#F9C637"/>
<path d="M12.3334 49.3333V44.4C12.3334 43.0377 11.229 41.9333 9.86668 41.9333H7.40002C6.03771 41.9333 4.93335 43.0377 4.93335 44.4V49.3333C4.93335 50.6956 6.03771 51.8 7.40002 51.8H9.86668C11.229 51.8 12.3334 50.6956 12.3334 49.3333ZM7.40002 49.3333V44.4H9.86668V49.3333H7.40002Z" fill="white"/>
<path d="M19.7333 51.8H22.1999C23.5622 51.8 24.6666 50.6956 24.6666 49.3333V44.4C24.6666 43.0377 23.5622 41.9333 22.1999 41.9333H19.7333C18.371 41.9333 17.2666 43.0377 17.2666 44.4V49.3333C17.2666 50.6956 18.371 51.8 19.7333 51.8ZM19.7333 44.4H22.1999V49.3333H19.7333V44.4Z" fill="white"/>
<path d="M32.0668 51.8H34.5334C35.8957 51.8 37.0001 50.6956 37.0001 49.3333V44.4C37.0001 43.0377 35.8957 41.9333 34.5334 41.9333H32.0668C30.7045 41.9333 29.6001 43.0377 29.6001 44.4V49.3333C29.6001 50.6956 30.7045 51.8 32.0668 51.8ZM32.0668 44.4H34.5334V49.3333H32.0668V44.4Z" fill="white"/>
<path d="M7.40002 39.4667H9.86668C11.229 39.4667 12.3334 38.3623 12.3334 37V32.0667C12.3334 30.7044 11.229 29.6 9.86668 29.6H7.40002C6.03771 29.6 4.93335 30.7044 4.93335 32.0667V37C4.93335 38.3623 6.03771 39.4667 7.40002 39.4667ZM7.40002 32.0667H9.86668V37H7.40002V32.0667Z" fill="white"/>
<path d="M19.7333 39.4667H22.1999C23.5622 39.4667 24.6666 38.3623 24.6666 37V32.0667C24.6666 30.7044 23.5622 29.6 22.1999 29.6H19.7333C18.371 29.6 17.2666 30.7044 17.2666 32.0667V37C17.2666 38.3623 18.371 39.4667 19.7333 39.4667ZM19.7333 32.0667H22.1999V37H19.7333V32.0667Z" fill="white"/>
<path d="M32.0668 39.4667H34.5334C35.8957 39.4667 37.0001 38.3623 37.0001 37V32.0667C37.0001 30.7044 35.8957 29.6 34.5334 29.6H32.0668C30.7045 29.6 29.6001 30.7044 29.6001 32.0667V37C29.6001 38.3623 30.7045 39.4667 32.0668 39.4667ZM32.0668 32.0667H34.5334V37H32.0668V32.0667Z" fill="white"/>
<path d="M7.40002 27.1333H9.86668C11.229 27.1333 12.3334 26.029 12.3334 24.6667V19.7333C12.3334 18.371 11.229 17.2667 9.86668 17.2667H7.40002C6.03771 17.2667 4.93335 18.371 4.93335 19.7333V24.6667C4.93335 26.029 6.03771 27.1333 7.40002 27.1333ZM7.40002 19.7333H9.86668V24.6667H7.40002V19.7333Z" fill="white"/>
<path d="M19.7333 27.1333H22.1999C23.5622 27.1333 24.6666 26.029 24.6666 24.6667V19.7333C24.6666 18.371 23.5622 17.2667 22.1999 17.2667H19.7333C18.371 17.2667 17.2666 18.371 17.2666 19.7333V24.6667C17.2666 26.029 18.371 27.1333 19.7333 27.1333ZM19.7333 19.7333H22.1999V24.6667H19.7333V19.7333Z" fill="white"/>
<path d="M32.0668 27.1333H34.5334C35.8957 27.1333 37.0001 26.029 37.0001 24.6667V19.7333C37.0001 18.371 35.8957 17.2667 34.5334 17.2667H32.0668C30.7045 17.2667 29.6001 18.371 29.6001 19.7333V24.6667C29.6001 26.029 30.7045 27.1333 32.0668 27.1333ZM32.0668 19.7333H34.5334V24.6667H32.0668V19.7333Z" fill="white"/>
<path d="M7.40002 14.8H9.86668C11.229 14.8 12.3334 13.6956 12.3334 12.3333V7.4C12.3334 6.0377 11.229 4.93333 9.86668 4.93333H7.40002C6.03771 4.93333 4.93335 6.0377 4.93335 7.4V12.3333C4.93335 13.6956 6.03771 14.8 7.40002 14.8ZM7.40002 7.4H9.86668V12.3333H7.40002V7.4Z" fill="white"/>
<path d="M19.7333 14.8H22.1999C23.5622 14.8 24.6666 13.6956 24.6666 12.3333V7.4C24.6666 6.0377 23.5622 4.93333 22.1999 4.93333H19.7333C18.371 4.93333 17.2666 6.0377 17.2666 7.4V12.3333C17.2666 13.6956 18.371 14.8 19.7333 14.8ZM19.7333 7.4H22.1999V12.3333H19.7333V7.4Z" fill="white"/>
<path d="M32.0668 14.8H34.5334C35.8957 14.8 37.0001 13.6956 37.0001 12.3333V7.4C37.0001 6.0377 35.8957 4.93333 34.5334 4.93333H32.0668C30.7045 4.93333 29.6001 6.0377 29.6001 7.4V12.3333C29.6001 13.6956 30.7045 14.8 32.0668 14.8ZM32.0668 7.4H34.5334V12.3333H32.0668V7.4Z" fill="white"/>
<path d="M46.8666 44.4C47.5478 44.4 48.1 43.8478 48.1 43.1667V38.2333C48.1 37.5522 47.5478 37 46.8666 37C46.1855 37 45.6333 37.5522 45.6333 38.2333V43.1667C45.6333 43.8478 46.1855 44.4 46.8666 44.4Z" fill="white"/>
<path d="M53.0334 34.5333C53.7145 34.5333 54.2667 33.9811 54.2667 33.3V28.3667C54.2667 27.6855 53.7145 27.1333 53.0334 27.1333C52.3522 27.1333 51.8 27.6855 51.8 28.3667V33.3C51.8 33.9811 52.3522 34.5333 53.0334 34.5333Z" fill="white"/>
<path d="M46.8666 34.5333C47.5478 34.5333 48.1 33.9811 48.1 33.3V28.3667C48.1 27.6855 47.5478 27.1333 46.8666 27.1333C46.1855 27.1333 45.6333 27.6855 45.6333 28.3667V33.3C45.6333 33.9811 46.1855 34.5333 46.8666 34.5333Z" fill="white"/>
<path d="M59.2001 34.5333C59.8813 34.5333 60.4335 33.9811 60.4335 33.3V28.3667C60.4335 27.6855 59.8813 27.1333 59.2001 27.1333C58.519 27.1333 57.9668 27.6855 57.9668 28.3667V33.3C57.9668 33.9811 58.519 34.5333 59.2001 34.5333Z" fill="white"/>
<path d="M73.26 45.0043L66.6 42.1294V24.6667C66.6 23.3044 65.4956 22.2 64.1333 22.2H41.9333V2.46667C41.9333 1.10436 40.829 0 39.4667 0H2.46667C1.10436 0 0 1.10436 0 2.46667V71.5333C0 72.8956 1.10436 74 2.46667 74H60.4333C60.5812 73.9969 60.7273 73.9677 60.865 73.9137C60.9102 73.8939 60.9543 73.8717 60.997 73.8471C61.0493 73.8253 61.1 73.7997 61.1487 73.7706L70.7835 66.9133C72.7904 65.4915 73.9882 63.1888 74 60.7293V46.1365C74.0007 45.6455 73.7101 45.2008 73.26 45.0043ZM2.46667 2.46667H39.4667V71.5333H29.6V60.4333C29.5959 57.0293 26.8374 54.2707 23.4333 54.2667H18.5C15.0959 54.2707 12.3374 57.0293 12.3333 60.4333V71.5333H2.46667V2.46667ZM14.8 60.4333C14.8 58.3899 16.4565 56.7333 18.5 56.7333H19.7333V71.5333H14.8V60.4333ZM22.2 71.5333V56.7333H23.4333C25.4768 56.7333 27.1333 58.3899 27.1333 60.4333V71.5333H22.2ZM41.9333 24.6667H64.1333V41.07L60.9267 39.6763C60.7711 39.6086 60.603 39.5741 60.4333 39.5752V38.2333C60.4333 37.5522 59.8812 37 59.2 37C58.5188 37 57.9667 37.5522 57.9667 38.2333V40.531L54.2667 42.1344V38.2333C54.2667 37.5522 53.7145 37 53.0333 37C52.3522 37 51.8 37.5522 51.8 38.2333V43.1667C51.8 43.1753 51.8 43.1839 51.8 43.1926L47.6067 45.0043C47.1566 45.2008 46.8659 45.6455 46.8667 46.1365V71.5333H41.9333V24.6667ZM49.3333 66.3003C49.5697 66.5218 49.8202 66.7278 50.0832 66.917L56.5742 71.5333H49.3333V66.3003ZM71.5333 60.7293C71.5224 62.3915 70.7099 63.9461 69.3516 64.9042L60.4333 71.2521L51.5151 64.9042C50.1569 63.946 49.3445 62.3914 49.3333 60.7293V46.9468L59.6785 42.4772L60.4333 42.1516L64.861 44.0645L64.9128 44.0867L71.5333 46.9468V60.7293Z" fill="white"/>
<path d="M57.7497 60.8638L53.7735 57.8816C53.2285 57.4729 52.4555 57.5833 52.0468 58.1282C51.6381 58.6732 51.7485 59.4462 52.2935 59.8549L57.2268 63.5549C57.7596 63.9548 58.5137 63.8592 58.93 63.3391L68.7967 51.0057C69.0721 50.6616 69.143 50.1967 68.9826 49.7861C68.8223 49.3756 68.4551 49.0817 68.0194 49.0153C67.5837 48.9489 67.1456 49.1199 66.8702 49.4641L57.7497 60.8638Z" fill="white"/>
</svg>
