<svg width="78" height="78" viewBox="0 0 78 78" fill="none" xmlns="http://www.w3.org/2000/svg">
<g clip-path="url(#clip0)">
<path d="M44.5467 38.1768L55.2033 45.7476C55.6769 46.0841 56.3122 46.0841 56.7857 45.7476L67.4423 38.1768C69.6623 36.6076 70.9872 34.0656 71 31.3507V15.2424C71.0008 14.7003 70.6793 14.2094 70.1815 13.9926L56.5402 8.11129C56.1954 7.9629 55.8046 7.9629 55.4598 8.11129L41.8185 13.9926C41.3207 14.2094 40.9992 14.7003 41 15.2424V31.3507C41.0106 34.0636 42.3311 36.605 44.5467 38.1768ZM43.7174 16.1368L55.9945 10.845L68.2717 16.1368V31.3507C68.2618 33.1882 67.3629 34.9077 65.8586 35.9672L55.9945 42.9676L46.1305 35.959C44.628 34.9017 43.7293 33.1855 43.7174 31.3507V16.1368Z" fill="#F9C637"/>
<path d="M54.9808 10L42 15.7463L43.0385 35.597L55.5 45L68.4808 35.0746L69 15.7463L54.9808 10Z" fill="#F9C637"/>
<path d="M47.5905 34.4799L57.746 41.7092C58.1974 42.0305 58.8027 42.0305 59.2541 41.7092L69.4096 34.4799C71.5253 32.9815 72.7878 30.5542 72.8 27.9617V12.5801C72.8008 12.0625 72.4944 11.5937 72.0201 11.3867L59.0201 5.7707C58.6915 5.629 58.319 5.629 57.9905 5.7707L44.9905 11.3867C44.5161 11.5937 44.2097 12.0625 44.2105 12.5801V27.9617C44.2205 30.5523 45.4789 32.9791 47.5905 34.4799ZM46.8001 13.4342L58.5 8.3811L70.2 13.4342V27.9617C70.1906 29.7164 69.334 31.3583 67.9003 32.37L58.5 39.0546L49.0998 32.3622C47.6678 31.3526 46.8114 29.7138 46.8001 27.9617V13.4342Z" fill="white"/>
<path d="M55.1199 30.9399C55.6816 31.3614 56.4765 31.2607 56.9152 30.7124L67.3152 17.7124C67.764 17.1517 67.6732 16.3333 67.1124 15.8846C66.5517 15.4359 65.7334 15.5267 65.2846 16.0874L55.6646 28.1046L51.4799 24.9599C51.1084 24.6812 50.6164 24.622 50.1893 24.8044C49.7621 24.9869 49.4648 25.3833 49.4093 25.8444C49.3537 26.3055 49.5484 26.7612 49.9199 27.0399L55.1199 30.9399Z" fill="white"/>
<path d="M2.6 68.9008H3.9V74.1008C3.9 76.2547 5.64609 78.0008 7.8 78.0008H15.6C17.7539 78.0008 19.5 76.2547 19.5 74.1008V68.9008H50.7V74.1008C50.7 76.2547 52.4461 78.0008 54.6 78.0008H62.4C64.5539 78.0008 66.3 76.2547 66.3 74.1008V68.9008H67.6C69.0359 68.9008 70.2 67.7367 70.2 66.3008V46.8008C70.2048 44.9167 69.3833 43.1253 67.9523 41.8998L72.4243 38.7174C75.9096 36.2423 77.9859 32.2372 78 27.9625V9.16317C78.0008 8.64556 77.6944 8.17682 77.22 7.96977L59.02 0.107373C58.6914 -0.0343261 58.319 -0.0343261 57.9904 0.107373L39.78 7.96977C39.3056 8.17682 38.9992 8.64556 39 9.16317V14.3008H19.331C16.5749 14.3017 14.1189 16.0407 13.2028 18.6402L5.5458 40.397C2.36705 40.8648 0.00887532 43.5878 0 46.8008V66.3008C0 67.7367 1.16406 68.9008 2.6 68.9008ZM16.9 74.1008C16.9 74.8187 16.318 75.4008 15.6 75.4008H7.8C7.08203 75.4008 6.5 74.8187 6.5 74.1008V68.9008H16.9V74.1008ZM11.7 66.3008H9.1V63.7008H11.7V66.3008ZM63.7 74.1008C63.7 74.8187 63.118 75.4008 62.4 75.4008H54.6C53.882 75.4008 53.3 74.8187 53.3 74.1008V68.9008H63.7V74.1008ZM61.1 66.3008H58.5V63.7008H61.1V66.3008ZM41.6 10.0173L58.5 2.71647L75.4 10.0173V27.9573C75.3871 31.3913 73.7173 34.6079 70.9163 36.5945L58.5 45.4384L46.0837 36.5984C43.283 34.612 41.6133 31.396 41.6 27.9625V10.0173ZM61.1 48.1008C61.818 48.1008 62.4 48.6828 62.4 49.4008V52.0008C62.4 52.7187 61.818 53.3008 61.1 53.3008H53.3C52.582 53.3008 52 52.7187 52 52.0008C52 49.8469 53.7461 48.1008 55.9 48.1008H61.1ZM39 22.1008V24.7008H29.9V22.1008H39ZM39 19.5008H36.4V16.9008H39V19.5008ZM15.6559 19.5008C16.2066 17.9432 17.6789 16.9016 19.331 16.9008H33.8V19.5008H29.9C28.4641 19.5008 27.3 20.6648 27.3 22.1008V24.7008C27.3 26.1367 28.4641 27.3008 29.9 27.3008H39V27.9625C39.0141 32.2372 41.0904 36.2423 44.5757 38.7174L46.8 40.3008H8.3356L15.6559 19.5008ZM2.6 46.8008C2.6 44.6469 4.34609 42.9008 6.5 42.9008H50.453L54.3816 45.6984C51.4662 46.3988 49.4082 49.0025 49.4 52.0008C49.4 54.1547 51.1461 55.9008 53.3 55.9008H61.1C63.2539 55.9008 65 54.1547 65 52.0008V49.4008C64.9958 47.7949 64.0076 46.3558 62.5105 45.7751L65.7293 43.4832C66.8952 44.1809 67.6063 45.4421 67.6 46.8008L67.6 66.3008H63.7V63.7008C63.7 62.2648 62.5359 61.1008 61.1 61.1008H58.5C57.0641 61.1008 55.9 62.2648 55.9 63.7008V66.3008H14.3V63.7008C14.3 62.2648 13.1359 61.1008 11.7 61.1008H9.1C7.66406 61.1008 6.5 62.2648 6.5 63.7008V66.3008H2.6V46.8008Z" fill="white"/>
<path d="M23.4001 19.5H21.1758C19.5231 19.5019 18.0502 20.5428 17.4968 22.1L12.6166 35.9684C12.3782 36.6458 12.7341 37.3882 13.4115 37.6266C14.0889 37.8649 14.8313 37.509 15.0697 36.8316L19.9499 22.9684C20.1329 22.4482 20.6243 22.1002 21.1758 22.1H23.4001C24.118 22.1 24.7001 21.518 24.7001 20.8C24.7001 20.082 24.118 19.5 23.4001 19.5Z" fill="white"/>
<path d="M9.1002 55.9H16.9002C19.0541 55.9 20.8002 54.1539 20.8002 52C20.7959 48.4119 17.8883 45.5043 14.3002 45.5H9.1002C6.94629 45.5 5.2002 47.2461 5.2002 49.4V52C5.2002 54.1539 6.94629 55.9 9.1002 55.9ZM7.8002 49.4C7.8002 48.682 8.38223 48.1 9.1002 48.1H14.3002C16.4541 48.1 18.2002 49.8461 18.2002 52C18.2002 52.718 17.6182 53.3 16.9002 53.3H9.1002C8.38223 53.3 7.8002 52.718 7.8002 52V49.4Z" fill="white"/>
<path d="M25.9999 63.6999H44.1999C45.6358 63.6999 46.7999 62.5359 46.7999 61.0999V55.8999C46.7999 54.464 45.6358 53.2999 44.1999 53.2999H25.9999C24.564 53.2999 23.3999 54.464 23.3999 55.8999V61.0999C23.3999 62.5359 24.564 63.6999 25.9999 63.6999ZM25.9999 55.8999H44.1999V61.0999H25.9999V55.8999Z" fill="white"/>
</g>
<defs>
<clipPath id="clip0">
<rect width="78" height="78" fill="white"/>
</clipPath>
</defs>
</svg>
