<svg width="87" height="83" viewBox="0 0 87 83" fill="none" xmlns="http://www.w3.org/2000/svg">
<rect x="24.1377" y="48.325" width="31" height="31" rx="15.5" fill="#F9C637"/>
<path d="M52.3812 55.6438H46.3999C44.7687 55.6438 43.5 56.9125 43.5 58.5438C43.5 60.175 44.7687 61.4438 46.3999 61.4438H49.3C50.9312 61.4438 52.1999 62.7125 52.1999 64.3438C52.1999 65.975 50.9312 67.2438 49.3 67.2438H43.1375" stroke="white" stroke-width="2" stroke-miterlimit="10"/>
<path d="M48.0312 52.5625V55.6437" stroke="white" stroke-width="2" stroke-miterlimit="10"/>
<path d="M48.0312 67.425V70.325" stroke="white" stroke-width="2" stroke-miterlimit="10"/>
<path d="M78.1187 79.2062H17.3999C15.4062 79.2062 13.7749 77.575 13.7749 75.5812V47.125C13.7749 45.1312 15.4062 43.5 17.3999 43.5H78.1187C80.1124 43.5 81.7437 45.1312 81.7437 47.125V75.7625C81.7437 77.7562 80.1124 79.2062 78.1187 79.2062Z" stroke="white" stroke-width="2" stroke-miterlimit="10"/>
<path d="M24.4686 43.5C24.4686 49.3 19.7561 54.0125 13.9561 54.0125" stroke="white" stroke-width="2" stroke-miterlimit="10"/>
<path d="M71.0498 43.5C71.0498 49.3 75.7623 54.0125 81.5623 54.0125" stroke="white" stroke-width="2" stroke-miterlimit="10"/>
<path d="M24.4686 79.2063C24.4686 73.4063 19.7561 68.6938 13.9561 68.6938" stroke="white" stroke-width="2" stroke-miterlimit="10"/>
<path d="M71.0498 79.2063C71.0498 73.4063 75.7623 68.6938 81.5623 68.6938" stroke="white" stroke-width="2" stroke-miterlimit="10"/>
<path d="M47.8499 73.7687C54.6568 73.7687 60.1749 68.2506 60.1749 61.4437C60.1749 54.6368 54.6568 49.1187 47.8499 49.1187C41.043 49.1187 35.5249 54.6368 35.5249 61.4437C35.5249 68.2506 41.043 73.7687 47.8499 73.7687Z" stroke="white" stroke-width="2" stroke-miterlimit="10"/>
<path d="M27.5498 61.4438H31.7186" stroke="white" stroke-width="2" stroke-miterlimit="10"/>
<path d="M63.4375 61.4438H67.425" stroke="white" stroke-width="2" stroke-miterlimit="10"/>
<path d="M48.0312 40.6V3.80627C48.0312 3.62502 47.85 3.44377 47.6687 3.44377H4.89375C4.7125 3.44377 4.53125 3.62502 4.53125 3.80627V78.8438C4.53125 79.2063 4.7125 79.3875 5.075 79.3875H11.2375" stroke="white" stroke-width="2" stroke-miterlimit="10"/>
<path d="M37.5188 11.6V19.2125" stroke="white" stroke-width="2" stroke-miterlimit="10"/>
<path d="M37.5188 23.0188V30.6313" stroke="white" stroke-width="2" stroke-miterlimit="10"/>
<path d="M37.5188 34.2563V39.15" stroke="white" stroke-width="2" stroke-miterlimit="10"/>
<path d="M23.5626 28.6375H14.3188C14.1376 28.6375 13.9563 28.4562 13.9563 28.275V13.9562C13.9563 13.775 14.1376 13.5938 14.3188 13.5938H23.5626C23.7438 13.5938 23.9251 13.775 23.9251 13.9562V28.275C23.9251 28.4562 23.7438 28.6375 23.5626 28.6375Z" stroke="white" stroke-width="2" stroke-miterlimit="10"/>
<path d="M52.0188 14.6813C66.5188 14.6813 78.4813 26.4625 78.4813 41.1438" stroke="white" stroke-width="2" stroke-miterlimit="10" stroke-dasharray="1.99 1.99"/>
</svg>
