<svg width="80" height="80" viewBox="0 0 80 80" fill="none" xmlns="http://www.w3.org/2000/svg">
<path d="M39.8315 54.9128C28.5161 44.975 6.35304 24.474 8.22405 21.9725C10.5628 18.8456 56.6672 -15.7519 39.8315 54.9128Z" fill="#F9C637"/>
<path d="M16.7049 64.8533C16.242 65.3438 15.9835 65.9923 15.982 66.6666V77.3333C15.982 78.806 17.1763 79.9999 18.6496 79.9999H33.3211C34.7943 79.9999 35.9886 78.806 35.9886 77.3333V66.6666C35.9886 65.1939 34.7943 64 33.3211 64V61.5187C33.3619 58.3609 32.3314 55.2825 30.3974 52.7854C29.2636 51.2946 27.7183 50.1679 25.952 49.544C23.1428 48.3642 20.5594 46.7068 18.3161 44.6454C16.2339 42.9311 13.2758 42.7774 11.027 44.2667L8.1421 37.5281C7.52859 36.1388 6.22027 35.1823 4.70996 35.0188C3.19965 34.8553 1.71681 35.5096 0.820013 36.7354C-0.0767869 37.9612 -0.251302 39.5721 0.362206 40.9614L5.58926 52.456C6.29444 54.0121 7.27545 55.4278 8.48488 56.6347L16.7049 64.8533ZM33.3211 77.3333H18.6496V66.6666H33.3211V77.3333ZM2.78967 39.8588C2.5666 39.3681 2.60812 38.7979 2.89989 38.3447C3.19166 37.8916 3.69373 37.6176 4.23281 37.6174C4.86722 37.6169 5.44056 37.9953 5.68929 38.5788L8.67294 45.5347C9.46523 47.3906 10.6072 49.0768 12.0367 50.5014L18.1294 56.5933C18.4643 56.94 18.9602 57.079 19.4265 56.9569C19.8928 56.8349 20.257 56.4709 20.3791 56.0047C20.5011 55.5385 20.3621 55.0428 20.0153 54.708L13.9227 48.6161C13.31 48.0051 12.7592 47.3352 12.2781 46.6161C13.559 45.6308 15.3509 45.6606 16.5982 46.6881C19.0915 48.9755 21.9732 50.7996 25.1077 52.0747C26.385 52.5393 27.4995 53.3653 28.3154 54.452C29.8698 56.4765 30.6938 58.9669 30.6535 61.5187V64H19.6245L10.3708 54.7494C9.38802 53.7683 8.59052 52.6178 8.01672 51.3534L2.78967 39.8588Z" fill="white"/>
<path d="M29.3199 70.6668H27.9861C27.2495 70.6668 26.6523 71.2638 26.6523 72.0002C26.6523 72.7365 27.2495 73.3335 27.9861 73.3335H29.3199C30.0565 73.3335 30.6537 72.7365 30.6537 72.0002C30.6537 71.2638 30.0565 70.6668 29.3199 70.6668Z" fill="white"/>
<path d="M75.747 34.9508C74.0455 34.9497 72.5076 35.964 71.839 37.5282L68.9607 44.2415C66.7042 42.7594 63.7446 42.9217 61.6637 44.6415C59.4204 46.7029 56.837 48.3602 54.0278 49.5401C52.2615 50.164 50.7162 51.2907 49.5824 52.7814C47.6476 55.2796 46.617 58.3596 46.6588 61.5187V64C45.1855 64 43.9912 65.1939 43.9912 66.6667V77.3333C43.9912 78.8061 45.1855 80 46.6588 80H61.3302C62.8035 80 63.9978 78.8061 63.9978 77.3333V66.6667C63.9963 65.9923 63.7378 65.3439 63.2749 64.8534L71.4949 56.6347C72.7043 55.4279 73.6853 54.0122 74.3905 52.4561L79.6176 40.9615C80.2168 39.6462 80.1063 38.1167 79.3241 36.9012C78.5419 35.6857 77.1954 34.951 75.7496 34.9508H75.747ZM61.3302 77.3333H46.6588V66.6667H61.3302V77.3333ZM77.1901 39.8588L71.9631 51.3534C71.3893 52.6179 70.5918 53.7683 69.609 54.7494L60.3553 64H49.3263V61.5187C49.286 58.967 50.11 56.4766 51.6644 54.4521C52.4787 53.3666 53.5907 52.5407 54.8654 52.0748C58.0005 50.8 60.8827 48.9759 63.3762 46.6881C64.6222 45.6529 66.4191 45.618 67.7043 46.6041C67.2219 47.3285 66.6683 48.003 66.0518 48.6174L59.9591 54.7094C59.4537 55.2326 59.4609 56.0642 59.9754 56.5785C60.4898 57.0928 61.3217 57.1 61.8451 56.5947L67.9377 50.5028C69.3672 49.0782 70.5092 47.392 71.3015 45.5361L74.2852 38.5788C74.5346 37.9962 75.1077 37.6184 75.7416 37.6188C76.2807 37.619 76.7828 37.893 77.0746 38.3461C77.3663 38.7993 77.4079 39.3695 77.1848 39.8602L77.1901 39.8588Z" fill="white"/>
<path d="M51.9937 70.6668H50.66C49.9233 70.6668 49.3262 71.2638 49.3262 72.0002C49.3262 72.7365 49.9233 73.3335 50.66 73.3335H51.9937C52.7304 73.3335 53.3275 72.7365 53.3275 72.0002C53.3275 71.2638 52.7304 70.6668 51.9937 70.6668Z" fill="white"/>
<path d="M54.7601 0.000330274C48.9055 -0.0350463 43.3981 2.7734 39.9899 7.5323C36.5817 2.7734 31.0744 -0.0350463 25.2197 0.000330274C14.5856 0.000330274 7.97941 6.73764 7.97941 17.5843C7.95158 20.2267 8.40349 22.8523 9.31318 25.3336H2.64432C1.9077 25.3336 1.31055 25.9305 1.31055 26.6669C1.31055 27.4033 1.9077 28.0002 2.64432 28.0002H10.5349C12.4604 31.1486 14.9139 33.9418 17.788 36.2575C18.4709 36.8655 19.1337 37.4575 19.7539 38.0482C24.2888 42.3695 38.5468 53.8828 39.1523 54.3708C39.6411 54.7651 40.3388 54.7651 40.8275 54.3708C41.4331 53.8828 55.6924 42.3708 60.2259 38.0482C60.8461 37.4575 61.509 36.8655 62.1919 36.2575C65.0659 33.9418 67.5195 31.1486 69.445 28.0002H77.3355C78.0722 28.0002 78.6693 27.4033 78.6693 26.6669C78.6693 25.9305 78.0722 25.3336 77.3355 25.3336H70.6734C71.5808 22.8519 72.0304 20.2263 72.0005 17.5843C72.0005 6.73764 65.3943 0.000330274 54.7601 0.000330274ZM10.647 17.5843C10.647 8.24296 16.0941 2.66699 25.2197 2.66699C30.859 2.64913 36.0631 5.69452 38.8082 10.619C39.0611 11.0287 39.5083 11.2783 39.9899 11.2783C40.4716 11.2783 40.9188 11.0287 41.1717 10.619C43.9168 5.69452 49.1208 2.64913 54.7601 2.66699C63.8858 2.66699 69.3329 8.24296 69.3329 17.5843C69.373 20.2485 68.8432 22.8906 67.7791 25.3336H59.9965C59.4553 25.3338 58.9679 25.6609 58.7628 26.1616L57.2769 20.9616C57.1122 20.3945 56.5939 20.0034 56.0032 20.0002H55.9952C55.406 20.0002 54.8865 20.3867 54.7174 20.9509L52.21 29.3082L49.297 15.7216C49.1674 15.1149 48.6364 14.6778 48.0159 14.667C47.3955 14.6561 46.8495 15.0745 46.6988 15.6763L44.2833 25.3336H37.3224C36.7812 25.3338 36.2938 25.6609 36.0887 26.1616L34.6028 20.9616C34.438 20.3945 33.9198 20.0034 33.3291 20.0002C32.7285 19.97 32.1902 20.368 32.0433 20.9509L29.5358 29.3082L26.6229 15.7216C26.4932 15.1147 25.9618 14.6775 25.3411 14.6669C24.7171 14.6446 24.1649 15.068 24.0247 15.6763L21.6092 25.3336H12.2008C11.1366 22.8906 10.6069 20.2485 10.647 17.5843ZM60.4153 34.2669C59.7111 34.8962 59.0255 35.5069 58.384 36.1189C54.5521 39.7735 43.1776 49.0335 39.9899 51.6175C36.8022 49.0335 25.4291 39.7735 21.5959 36.1189C20.9543 35.5069 20.2688 34.8962 19.5645 34.2669C17.3423 32.4376 15.3634 30.3316 13.6759 28.0002H22.6509C23.2627 28.0002 23.796 27.5841 23.9447 26.9909L25.2184 21.8976L28.0193 34.9455C28.1468 35.5411 28.6617 35.9746 29.2704 35.9989C29.8777 36.0175 30.4231 35.6293 30.6042 35.0495L33.2971 26.0776L34.7135 31.0335C34.8742 31.5957 35.3826 31.9876 35.9673 32.0002C36.5463 31.9947 37.0614 31.6315 37.261 31.0882L38.284 28.0002H45.325C45.9368 28.0002 46.4701 27.5841 46.6188 26.9909L47.8925 21.8976L50.6935 34.9455C50.8209 35.5411 51.3358 35.9746 51.9445 35.9989H51.9939C52.5831 35.9989 53.1025 35.6124 53.2716 35.0482L55.9645 26.0762L57.381 31.0322C57.5417 31.5944 58.05 31.9863 58.6347 31.9989C59.212 31.9881 59.7245 31.6268 59.9285 31.0869L60.9582 28.0002H66.3039C64.6165 30.3316 62.6375 32.4376 60.4153 34.2669Z" fill="white"/>
</svg>
