<svg width="60" height="60" viewBox="0 0 60 60" fill="none" xmlns="http://www.w3.org/2000/svg">
<circle cx="24" cy="38" r="20" fill="#F9C637"/>
<path d="M30 0.00201416C13.4582 0.00201416 0 13.4603 0 30.002C0 46.5426 13.4582 59.9996 30 59.9996C46.5418 59.9996 60 46.5438 60 30.002C60 13.459 46.5418 0.00201416 30 0.00201416ZM30 57.9669C14.58 57.9669 2.03446 45.4214 2.03446 30.0008C2.03446 14.5808 14.58 2.03527 30 2.03527C45.4194 2.03527 57.9661 14.5808 57.9661 30.0008C57.9649 45.4214 45.4194 57.9669 30 57.9669Z" fill="white"/>
<path d="M19.0727 32.0727C20.3161 32.0727 21.3241 31.0647 21.3241 29.8212C21.3241 28.5778 20.3161 27.5698 19.0727 27.5698C17.8293 27.5698 16.8213 28.5778 16.8213 29.8212C16.8213 31.0647 17.8293 32.0727 19.0727 32.0727Z" fill="white"/>
<path d="M30.4888 27.7431C29.2483 27.7431 28.2368 28.7552 28.2368 29.9964C28.2368 31.2357 29.2477 32.2466 30.4888 32.2466C31.7318 32.2466 32.7403 31.2387 32.7403 29.9964C32.7397 28.754 31.7288 27.7431 30.4888 27.7431Z" fill="white"/>
<path d="M41.9049 32.2466C43.1486 32.2466 44.1569 31.2383 44.1569 29.9946C44.1569 28.7508 43.1486 27.7425 41.9049 27.7425C40.6611 27.7425 39.6528 28.7508 39.6528 29.9946C39.6528 31.2383 40.6611 32.2466 41.9049 32.2466Z" fill="white"/>
</svg>
