<svg width="80" height="80" viewBox="0 0 80 80" fill="none" xmlns="http://www.w3.org/2000/svg">
<path d="M27 71.6875L29.8261 70H53V79H27V71.6875Z" fill="#F9C637"/>
<path d="M79 13.5L72 7.00001V79L76.5 78.5L79 75.5V13.5Z" fill="#F9C637"/>
<path d="M20.8638 46.5L6.11296 61.3C5.26579 60.45 3.90366 60.45 3.05648 61.3L2.29236 62.0667C1.44519 62.9167 1.44519 64.2834 2.29236 65.1334L6.87708 69.7334C7.72426 70.5834 9.08638 70.5834 9.93356 69.7334L10.6977 68.9667C11.5449 68.1167 11.5449 66.75 10.6977 65.9L25.4485 51.1" stroke="white" stroke-width="2" stroke-miterlimit="10"/>
<path d="M17.5417 39.2L19.8341 41.6667H22.8905L30.1663 49V52.0667L32.6414 54.3667C33.4885 55.2167 34.9503 55.2167 35.7809 54.3667L45.0002 45.1667C45.8473 44.3167 45.864 43.05 45.0168 42.2L42.7576 40H39.7012L31.8274 32.15V29.0833L29.6513 26.7833C28.8042 25.9333 27.4919 25.9333 26.6613 26.7833L17.5251 36.0667C16.6779 36.9 16.6945 38.3667 17.5417 39.2Z" stroke="white" stroke-width="2" stroke-miterlimit="10"/>
<path d="M6.07983 61.2667L8.37219 63.5667" stroke="white" stroke-width="2" stroke-miterlimit="10"/>
<path d="M32.0597 32.15L29.0032 35.2167" stroke="white" stroke-width="2" stroke-miterlimit="10"/>
<path d="M39.701 39.8167L36.6445 42.8833" stroke="white" stroke-width="2" stroke-miterlimit="10"/>
<path d="M25.1827 39.05L22.8904 41.35" stroke="white" stroke-width="2" stroke-miterlimit="10"/>
<path d="M32.8239 46.7L30.5315 49" stroke="white" stroke-width="2" stroke-miterlimit="10"/>
<path d="M57.8407 70H56.7443V67.1167C56.7443 65.3167 55.2991 63.3333 53.5217 63.3333H35.1496C33.3556 63.3333 31.8274 65.3167 31.8274 67.1167V70H30.8307C29.0367 70 26.844 70.7333 26.844 72.5333V78.3333H61.7277V72.5333C61.7277 70.7333 59.6347 70 57.8407 70Z" stroke="white" stroke-width="2" stroke-miterlimit="10"/>
<path d="M31.8274 70V67.1167C31.8274 65.3167 33.3556 63.3333 35.1497 63.3333H53.5217C55.3158 63.3333 56.7443 65.3167 56.7443 67.1167V70" stroke="white" stroke-width="2" stroke-miterlimit="10"/>
<path d="M43.4553 70H30.8307C29.0367 70 26.844 70.7333 26.844 72.5333V78.3333H61.7277V72.5333C61.7277 70.7333 59.6347 70 57.8407 70H51.7609" stroke="white" stroke-width="2" stroke-miterlimit="10"/>
<path d="M23.5217 23.3333V5C23.5217 3.16667 25.0167 1.66667 26.844 1.66667H66.7111L78.339 13.3333V75C78.339 76.8333 76.844 78.3333 75.0167 78.3333H66.7111" stroke="white" stroke-width="2" stroke-miterlimit="10"/>
<path d="M73.3555 15H65.0498V6.66666" stroke="white" stroke-width="2" stroke-miterlimit="10"/>
</svg>
