<svg width="86" height="68" viewBox="0 0 86 68" fill="none" xmlns="http://www.w3.org/2000/svg">
<path d="M52.5 33H83.5L84.5 34.5L83.5 38H55L43.5 42.5H5.5V36.5H43.5L52.5 33Z" fill="#F9C637"/>
<rect x="38" y="16" width="28" height="6" fill="#F9C637"/>
<path d="M30.1678 12.6193H8.55522V18.0276H4.95312V25.2386H8.55522V36.0551" stroke="white" stroke-width="2" stroke-miterlimit="10"/>
<path d="M12.1572 0V12.6193" stroke="white" stroke-width="2" stroke-miterlimit="10"/>
<path d="M19.3613 7.21103V12.6193" stroke="white" stroke-width="2" stroke-miterlimit="10"/>
<path d="M12.1572 21.6331H15.7593" stroke="white" stroke-width="2" stroke-miterlimit="10"/>
<path d="M39.1729 36.0551V21.6331H57.1833V32.4496" stroke="white" stroke-width="2" stroke-miterlimit="10"/>
<path d="M39.1731 21.6331H21.1626V36.0551H39.1731V21.6331Z" stroke="white" stroke-width="2" stroke-miterlimit="10"/>
<path d="M57.1836 32.4496V21.6331H75.1941V32.4496" stroke="white" stroke-width="2" stroke-miterlimit="10"/>
<path d="M48.1784 9.01379H30.168V21.6331H48.1784V9.01379Z" stroke="white" stroke-width="2" stroke-miterlimit="10"/>
<path d="M66.1887 9.01379H48.1782V21.6331H66.1887V9.01379Z" stroke="white" stroke-width="2" stroke-miterlimit="10"/>
<path d="M70.4752 53.6861C72.0421 47.755 84.1991 43.2662 84.1991 32.4496H51.9784L43.5315 36.0551C43.5315 36.0551 10.3382 36.0551 4.93506 36.0551V46.7275C4.93506 49.3775 5.07914 51.0721 5.92563 52.3701" stroke="white" stroke-width="2" stroke-miterlimit="10"/>
<path d="M74.0411 56.3542L68.0977 51.685C66.7649 50.6394 65.0179 50.7656 63.7932 51.9915L61.5779 54.2269C60.3352 55.4889 58.5521 55.579 57.2014 54.4793L53.8514 51.7211C52.5366 50.6394 50.8076 50.7116 49.5649 51.9014L47.0254 54.3171C45.7467 55.5249 43.9817 55.561 42.6669 54.4252L39.6231 51.7932C38.3444 50.6755 36.6154 50.6935 35.3367 51.8293L32.491 54.3892C31.1942 55.5429 29.4112 55.5429 28.1325 54.3531L25.3949 51.8473C24.1341 50.6935 22.4051 50.6575 21.1084 51.7571L17.9385 54.4433C16.6238 55.561 14.8407 55.5069 13.58 54.281L11.1666 51.9374C9.92387 50.7296 8.19487 50.6394 6.88011 51.7031L1.13477 56.3361" stroke="white" stroke-width="2" stroke-miterlimit="10"/>
<path d="M84.1989 63.1506L82.65 61.9247C81.3172 60.8791 79.5702 61.0053 78.3455 62.2312L76.1302 64.4666C74.8875 65.7285 73.1044 65.8187 71.7537 64.719L68.4037 61.9607C67.0889 60.8791 65.3599 60.9512 64.1172 62.141L61.5777 64.5567C60.299 65.7646 58.534 65.8006 57.2192 64.6649L54.1754 62.0329C52.8967 60.9152 51.1677 60.9332 49.889 62.0689L47.0433 64.6288C45.7465 65.7826 43.9635 65.7826 42.6848 64.5928L39.9472 62.0869C38.6864 60.9332 36.9574 60.8971 35.6607 61.9968L32.5088 64.6829C31.1941 65.8006 29.411 65.7465 28.1503 64.5207L25.7369 62.1771C24.4942 60.9692 22.7652 60.8791 21.4504 61.9427L15.7051 66.5758" stroke="white" stroke-width="2" stroke-miterlimit="10"/>
<path d="M57.1831 39.6606H53.5811" stroke="white" stroke-width="2" stroke-miterlimit="10"/>
</svg>
